<?xml version="1.0" encoding="UTF-8"?>
<svg width="121px" height="115px" viewBox="0 0 121 115" version="1.1" xmlns="http://www.w3.org/2000/svg" xmlns:xlink="http://www.w3.org/1999/xlink">
    <!-- Generator: Sketch 49.1 (51147) - http://www.bohemiancoding.com/sketch -->
    <title>drafts-site-header</title>
    <desc>Created with Sketch.</desc>
    <defs>
        <filter x="-31.0%" y="-20.7%" width="162.1%" height="162.1%" filterUnits="objectBoundingBox" id="filter-1">
            <feOffset dx="0" dy="3" in="SourceAlpha" result="shadowOffsetOuter1"></feOffset>
            <feGaussianBlur stdDeviation="2.5" in="shadowOffsetOuter1" result="shadowBlurOuter1"></feGaussianBlur>
            <feColorMatrix values="0 0 0 0 0   0 0 0 0 0   0 0 0 0 0  0 0 0 0.709125906 0" type="matrix" in="shadowBlurOuter1" result="shadowMatrixOuter1"></feColorMatrix>
            <feMerge>
                <feMergeNode in="shadowMatrixOuter1"></feMergeNode>
                <feMergeNode in="SourceGraphic"></feMergeNode>
            </feMerge>
        </filter>
        <path d="M2.4609375,53.453125 L10.6953125,53.453125 C17.4296875,53.453125 21.4140625,57.53125 21.4140625,64.671875 C21.4140625,71.8125 17.4453125,76 10.6953125,76 L2.4609375,76 L2.4609375,53.453125 Z M6.4921875,56.859375 L6.4921875,72.59375 L10.2734375,72.59375 C14.8046875,72.59375 17.3046875,69.828125 17.3046875,64.6875 C17.3046875,59.640625 14.7734375,56.859375 10.2734375,56.859375 L6.4921875,56.859375 Z M24.2109375,76 L24.2109375,59.4375 L27.9453125,59.4375 L27.9453125,62.328125 L28.0234375,62.328125 C28.5546875,60.375 30.0390625,59.25 31.9921875,59.25 C32.4921875,59.25 32.9140625,59.3125 33.2109375,59.390625 L33.2109375,62.90625 C32.8828125,62.78125 32.2890625,62.6875 31.6328125,62.6875 C29.4296875,62.6875 28.1015625,64.109375 28.1015625,66.453125 L28.1015625,76 L24.2109375,76 Z M40.8984375,73.296875 C43.1328125,73.296875 44.8671875,71.828125 44.8671875,69.859375 L44.8671875,68.609375 L41.1328125,68.84375 C39.1015625,68.984375 38.0390625,69.765625 38.0390625,71.09375 C38.0390625,72.40625 39.1640625,73.296875 40.8984375,73.296875 Z M39.7265625,76.234375 C36.4765625,76.234375 34.1328125,74.203125 34.1328125,71.25 C34.1328125,68.296875 36.4140625,66.59375 40.5859375,66.34375 L44.8671875,66.078125 L44.8671875,64.90625 C44.8671875,63.171875 43.6953125,62.21875 41.6953125,62.21875 C40.0078125,62.21875 38.8046875,63.09375 38.5546875,64.40625 L34.9609375,64.40625 C35.0703125,61.359375 37.8828125,59.1875 41.8359375,59.1875 C45.9921875,59.1875 48.7109375,61.34375 48.7109375,64.640625 L48.7109375,76 L44.9609375,76 L44.9609375,73.359375 L44.8828125,73.359375 C43.9609375,75.125 41.9140625,76.234375 39.7265625,76.234375 Z M52.9140625,76 L52.9140625,62.4375 L50.6484375,62.4375 L50.6484375,59.4375 L52.9140625,59.4375 L52.9140625,57.9375 C52.9140625,54.78125 54.3671875,53.46875 57.9921875,53.46875 C58.6796875,53.46875 59.2890625,53.515625 59.8671875,53.609375 L59.8671875,56.40625 C59.5390625,56.359375 59.1171875,56.3125 58.6484375,56.3125 C57.3203125,56.3125 56.7421875,56.859375 56.7421875,58.125 L56.7421875,59.4375 L59.8828125,59.4375 L59.8828125,62.4375 L56.8046875,62.4375 L56.8046875,76 L52.9140625,76 Z M63.5546875,55.5625 L67.4453125,55.5625 L67.4453125,59.4375 L70.5703125,59.4375 L70.5703125,62.4375 L67.4453125,62.4375 L67.4453125,71.03125 C67.4453125,72.390625 68.0703125,73.03125 69.4453125,73.03125 C69.8046875,73.03125 70.3046875,72.984375 70.5546875,72.953125 L70.5546875,75.921875 C70.1328125,76.015625 69.3671875,76.078125 68.5390625,76.078125 C64.9609375,76.078125 63.5546875,74.796875 63.5546875,71.578125 L63.5546875,62.4375 L61.1796875,62.4375 L61.1796875,59.4375 L63.5546875,59.4375 L63.5546875,55.5625 Z M72.9140625,64.234375 C72.9140625,61.21875 75.5859375,59.203125 79.6171875,59.203125 C83.5078125,59.203125 86.1796875,61.25 86.2421875,64.296875 L82.6171875,64.296875 C82.5234375,62.90625 81.3359375,62.046875 79.5390625,62.046875 C77.8359375,62.046875 76.6953125,62.828125 76.6953125,64 C76.6953125,64.921875 77.4453125,65.53125 79.0703125,65.921875 L82.0234375,66.578125 C85.3359375,67.359375 86.6328125,68.609375 86.6328125,71.0625 C86.6328125,74.15625 83.7265625,76.25 79.5546875,76.25 C75.4140625,76.25 72.7421875,74.203125 72.4921875,71.09375 L76.3203125,71.09375 C76.5390625,72.578125 77.7421875,73.40625 79.6953125,73.40625 C81.5859375,73.40625 82.7578125,72.65625 82.7578125,71.4375 C82.7578125,70.5 82.1484375,70 80.5390625,69.59375 L77.5234375,68.890625 C74.4609375,68.171875 72.9140625,66.59375 72.9140625,64.234375 Z" id="path-2"></path>
        <filter x="-4.8%" y="-8.8%" width="109.5%" height="135.1%" filterUnits="objectBoundingBox" id="filter-3">
            <feOffset dx="0" dy="2" in="SourceAlpha" result="shadowOffsetOuter1"></feOffset>
            <feGaussianBlur stdDeviation="1" in="shadowOffsetOuter1" result="shadowBlurOuter1"></feGaussianBlur>
            <feColorMatrix values="0 0 0 0 0   0 0 0 0 0   0 0 0 0 0  0 0 0 0.5 0" type="matrix" in="shadowBlurOuter1"></feColorMatrix>
        </filter>
        <path d="M7.2355957,105.199219 C3.93188477,105.199219 1.84008789,102.800293 1.84008789,99.0068359 C1.84008789,95.246582 3.95678711,92.8227539 7.2355957,92.8227539 C9.84204102,92.8227539 11.8259277,94.4082031 12.2077637,96.7988281 L10.6970215,96.7988281 C10.3151855,95.2299805 8.94555664,94.2006836 7.2355957,94.2006836 C4.89477539,94.2006836 3.37573242,96.0932617 3.37573242,99.0068359 C3.37573242,101.945312 4.87817383,103.821289 7.24389648,103.821289 C9.00366211,103.821289 10.2653809,102.974609 10.6970215,101.513672 L12.2077637,101.513672 C11.6599121,103.879395 9.88354492,105.199219 7.2355957,105.199219 Z M16.5905762,103.887695 C17.9768066,103.887695 18.9978027,102.949707 18.9978027,101.721191 L18.9978027,101.032227 L16.7648926,101.17334 C15.4865723,101.248047 14.8225098,101.721191 14.8225098,102.542969 C14.8225098,103.331543 15.5114746,103.887695 16.5905762,103.887695 Z M16.2668457,105.124512 C14.5153809,105.124512 13.3532715,104.070312 13.3532715,102.542969 C13.3532715,101.057129 14.4904785,100.177246 16.598877,100.052734 L18.9978027,99.9116211 L18.9978027,99.1977539 C18.9978027,98.1352539 18.3005371,97.5541992 17.0471191,97.5541992 C16.0593262,97.5541992 15.3205566,98.0605469 15.154541,98.8657227 L13.7766113,98.8657227 C13.8181152,97.3964844 15.2375488,96.2841797 17.0720215,96.2841797 C19.1223145,96.2841797 20.4421387,97.371582 20.4421387,99.0732422 L20.4421387,105 L19.0725098,105 L19.0725098,103.51416 L19.0393066,103.51416 C18.5495605,104.46875 17.470459,105.124512 16.2668457,105.124512 Z M26.4685059,96.2841797 C28.6682129,96.2841797 30.1623535,98.0439453 30.1623535,100.683594 C30.1623535,103.323242 28.6765137,105.083008 26.501709,105.083008 C25.2731934,105.083008 24.2937012,104.543457 23.7541504,103.597168 L23.7209473,103.597168 L23.7209473,107.880371 L22.2766113,107.880371 L22.2766113,96.3671875 L23.6462402,96.3671875 L23.6462402,97.7700195 L23.6794434,97.7700195 C24.185791,96.8735352 25.2731934,96.2841797 26.4685059,96.2841797 Z M26.1862793,103.804688 C27.6887207,103.804688 28.6848145,102.576172 28.6848145,100.683594 C28.6848145,98.7993164 27.6887207,97.5625 26.1862793,97.5625 C24.717041,97.5625 23.7126465,98.8325195 23.7126465,100.683594 C23.7126465,102.542969 24.717041,103.804688 26.1862793,103.804688 Z M32.079834,94.2836914 L33.5241699,94.2836914 L33.5241699,96.3671875 L35.2009277,96.3671875 L35.2009277,97.5541992 L33.5241699,97.5541992 L33.5241699,102.675781 C33.5241699,103.464355 33.8562012,103.821289 34.5949707,103.821289 C34.7609863,103.821289 35.0930176,103.796387 35.192627,103.779785 L35.192627,104.991699 C35.0183105,105.033203 34.619873,105.058105 34.279541,105.058105 C32.6940918,105.058105 32.079834,104.410645 32.079834,102.750488 L32.079834,97.5541992 L30.7932129,97.5541992 L30.7932129,96.3671875 L32.079834,96.3671875 L32.079834,94.2836914 Z M43.8254395,96.3671875 L43.8254395,105 L42.4558105,105 L42.4558105,103.563965 L42.4226074,103.563965 C41.8913574,104.568359 41.0114746,105.083008 39.6833496,105.083008 C37.7990723,105.083008 36.6950684,103.862793 36.6950684,101.903809 L36.6950684,96.3671875 L38.1394043,96.3671875 L38.1394043,101.646484 C38.1394043,103.049316 38.795166,103.804688 40.1315918,103.804688 C41.5344238,103.804688 42.3811035,102.841797 42.3811035,101.372559 L42.3811035,96.3671875 L43.8254395,96.3671875 Z M45.6931152,105 L45.6931152,96.3671875 L47.0544434,96.3671875 L47.0544434,97.7783203 L47.0876465,97.7783203 C47.3449707,96.8652344 48.166748,96.2841797 49.1794434,96.2841797 C49.4284668,96.2841797 49.6359863,96.309082 49.760498,96.3339844 L49.760498,97.7451172 C49.6442871,97.7036133 49.3371582,97.6621094 48.9885254,97.6621094 C47.8679199,97.6621094 47.1374512,98.4672852 47.1374512,99.6875 L47.1374512,105 L45.6931152,105 Z M53.9772949,97.5375977 C52.6408691,97.5375977 51.6779785,98.5087891 51.5866699,99.9448242 L56.2766113,99.9448242 C56.2434082,98.5004883 55.3220215,97.5375977 53.9772949,97.5375977 Z M56.2434082,102.526367 L57.6628418,102.526367 C57.4221191,104.020508 55.9196777,105.083008 54.0686035,105.083008 C51.6281738,105.083008 50.0925293,103.397949 50.0925293,100.716797 C50.0925293,98.0356445 51.6364746,96.2841797 54.0021973,96.2841797 C56.3181152,96.2841797 57.770752,97.9111328 57.770752,100.525879 L57.770752,101.07373 L51.5783691,101.07373 L51.5783691,101.156738 C51.5783691,102.775391 52.5827637,103.82959 54.1018066,103.82959 C55.1643066,103.82959 56.0026855,103.323242 56.2434082,102.526367 Z M63.9963379,103.041016 L63.9963379,97.6787109 L68.1799316,100.359863 L63.9963379,103.041016 Z M72.1975098,103.041016 L72.1975098,97.6787109 L76.3811035,100.359863 L72.1975098,103.041016 Z M90.6086426,105 L89.4050293,101.571777 L84.6403809,101.571777 L83.4367676,105 L81.8679199,105 L86.2839355,93.0219727 L87.7614746,93.0219727 L92.1774902,105 L90.6086426,105 Z M86.9978027,94.8398438 L85.0803223,100.301758 L88.9650879,100.301758 L87.0476074,94.8398438 L86.9978027,94.8398438 Z M100.328857,99.1977539 L98.9177246,99.1977539 C98.7434082,98.2763672 97.9797363,97.5541992 96.701416,97.5541992 C95.2155762,97.5541992 94.2028809,98.7910156 94.2028809,100.683594 C94.2028809,102.625977 95.2321777,103.812988 96.7180176,103.812988 C97.9050293,103.812988 98.6936035,103.248535 98.9260254,102.219238 L100.345459,102.219238 C100.113037,103.912598 98.6936035,105.083008 96.7097168,105.083008 C94.3273926,105.083008 92.7336426,103.397949 92.7336426,100.683594 C92.7336426,98.0273438 94.3190918,96.2841797 96.6931152,96.2841797 C98.8430176,96.2841797 100.154541,97.6621094 100.328857,99.1977539 Z M102.138428,94.2836914 L103.582764,94.2836914 L103.582764,96.3671875 L105.259521,96.3671875 L105.259521,97.5541992 L103.582764,97.5541992 L103.582764,102.675781 C103.582764,103.464355 103.914795,103.821289 104.653564,103.821289 C104.81958,103.821289 105.151611,103.796387 105.251221,103.779785 L105.251221,104.991699 C105.076904,105.033203 104.678467,105.058105 104.338135,105.058105 C102.752686,105.058105 102.138428,104.410645 102.138428,102.750488 L102.138428,97.5541992 L100.851807,97.5541992 L100.851807,96.3671875 L102.138428,96.3671875 L102.138428,94.2836914 Z" id="path-4"></path>
        <filter x="-3.9%" y="-13.3%" width="107.7%" height="153.1%" filterUnits="objectBoundingBox" id="filter-5">
            <feOffset dx="0" dy="2" in="SourceAlpha" result="shadowOffsetOuter1"></feOffset>
            <feGaussianBlur stdDeviation="1" in="shadowOffsetOuter1" result="shadowBlurOuter1"></feGaussianBlur>
            <feColorMatrix values="0 0 0 0 0   0 0 0 0 0   0 0 0 0 0  0 0 0 0.5 0" type="matrix" in="shadowBlurOuter1"></feColorMatrix>
        </filter>
    </defs>
    <g id="drafts-site-header" stroke="none" stroke-width="1" fill="none" fill-rule="evenodd">
        <g id="Group" filter="url(#filter-1)" transform="translate(2.000000, 10.000000)" fill="#FFFFFF" fill-rule="nonzero">
            <path d="M26.0741992,22.5370996 C26.0741992,23.3450372 26.729162,24 27.5370996,24 C28.3450372,24 29,23.3450372 29,22.5370996 L29,1.46290039 C29,0.654962815 28.3450372,0 27.5370996,0 L6.46290039,0 C5.65496281,0 5,0.654962815 5,1.46290039 C5,2.27083797 5.65496281,2.92580078 6.46290039,2.92580078 L26.0741992,2.92580078 L26.0741992,22.5370996 Z" id="Path-2"></path>
            <path d="M21.1664408,8.8335592 L21.1664408,17.0832204 C21.1664408,17.5895438 21.576897,18 22.0832204,18 C22.5895438,18 23,17.5895438 23,17.0832204 L23,7.9167796 C23,7.41045621 22.5895438,7 22.0832204,7 L12.9167796,7 C12.4104562,7 12,7.41045621 12,7.9167796 C12,8.42310299 12.4104562,8.8335592 12.9167796,8.8335592 L21.1664408,8.8335592 Z" id="Path-2"></path>
            <path d="M21.0741992,7.92580078 L21.0741992,27.5370996 C21.0741992,28.3450372 21.729162,29 22.5370996,29 C23.3450372,29 24,28.3450372 24,27.5370996 L24,6.46290039 C24,5.65496281 23.3450372,5 22.5370996,5 L1.46290039,5 C0.654962815,5 0,5.65496281 0,6.46290039 C0,7.27083797 0.654962815,7.92580078 1.46290039,7.92580078 L21.0741992,7.92580078 Z" id="Path-2" transform="translate(12.000000, 17.000000) rotate(-180.000000) translate(-12.000000, -17.000000) "></path>
        </g>
        <g id="Drafts">
            <use fill="black" fill-opacity="1" filter="url(#filter-3)" xlink:href="#path-2"></use>
            <use fill="#C8C8C8" fill-rule="evenodd" xlink:href="#path-2"></use>
        </g>
        <g id="Capture-‣‣-Act">
            <use fill="black" fill-opacity="1" filter="url(#filter-5)" xlink:href="#path-4"></use>
            <use fill="#FFFFFF" fill-rule="evenodd" xlink:href="#path-4"></use>
        </g>
    </g>
</svg>