<?xml version="1.0" encoding="UTF-8"?>
<svg width="150px" height="150px" viewBox="0 0 150 150" version="1.1" xmlns="http://www.w3.org/2000/svg" xmlns:xlink="http://www.w3.org/1999/xlink">
    <!-- Generator: Sketch 49.2 (51160) - http://www.bohemiancoding.com/sketch -->
    <title>drafts-site-header</title>
    <desc>Created with Sketch.</desc>
    <defs>
        <linearGradient x1="50%" y1="100%" x2="50%" y2="0%" id="linearGradient-1">
            <stop stop-color="#FFFFFF" stop-opacity="0.5" offset="0%"></stop>
            <stop stop-color="#000000" stop-opacity="0.181470788" offset="100%"></stop>
        </linearGradient>
        <rect id="path-2" x="0" y="0" width="150" height="150"></rect>
        <filter x="-23.8%" y="-19.0%" width="147.6%" height="147.6%" filterUnits="objectBoundingBox" id="filter-3">
            <feOffset dx="0" dy="1" in="SourceAlpha" result="shadowOffsetOuter1"></feOffset>
            <feGaussianBlur stdDeviation="1.5" in="shadowOffsetOuter1" result="shadowBlurOuter1"></feGaussianBlur>
            <feColorMatrix values="0 0 0 0 0   0 0 0 0 0   0 0 0 0 0  0 0 0 0.709125906 0" type="matrix" in="shadowBlurOuter1" result="shadowMatrixOuter1"></feColorMatrix>
            <feMerge>
                <feMergeNode in="shadowMatrixOuter1"></feMergeNode>
                <feMergeNode in="SourceGraphic"></feMergeNode>
            </feMerge>
        </filter>
        <path d="M29,0 L38.3179939,0 C45.9385924,0 50.4472991,4.61479395 50.4472991,12.6951037 C50.4472991,20.7754134 45.9562736,25.5139758 38.3179939,25.5139758 L29,25.5139758 L29,0 Z M33.5617503,3.85450223 L33.5617503,21.6594735 L37.8406014,21.6594735 C42.9681503,21.6594735 45.7971427,18.5299006 45.7971427,12.7127849 C45.7971427,7.00175634 42.9327879,3.85450223 37.8406014,3.85450223 L33.5617503,3.85450223 Z M53.6122344,25.5139758 L53.6122344,6.7719007 L57.8380419,6.7719007 L57.8380419,10.0429232 L57.9264479,10.0429232 C58.5276088,7.83277288 60.2073231,6.55972627 62.4174734,6.55972627 C62.9832719,6.55972627 63.4606644,6.63045108 63.7966073,6.71885709 L63.7966073,10.6971277 C63.425302,10.5556781 62.7534163,10.4495909 62.0108058,10.4495909 C59.5177562,10.4495909 58.0148539,12.0585804 58.0148539,14.7107608 L58.0148539,25.5139758 L53.6122344,25.5139758 Z M72.4957591,22.4551277 C75.0241711,22.4551277 76.9867846,20.7930946 76.9867846,18.565263 L76.9867846,17.1507668 L72.7609771,17.4159848 C70.4624208,17.5751157 69.260099,18.4591758 69.260099,19.9620781 C69.260099,21.4472991 70.5331456,22.4551277 72.4957591,22.4551277 Z M71.1696689,25.7791938 C67.4919787,25.7791938 64.8397982,23.4806374 64.8397982,20.1388901 C64.8397982,16.7971427 67.4212539,14.8698916 72.142135,14.5869924 L76.9867846,14.2864119 L76.9867846,12.9603217 C76.9867846,10.9977082 75.6606944,9.91915481 73.3975004,9.91915481 C71.4879305,9.91915481 70.1264779,10.9093022 69.8435786,12.3945232 L65.776902,12.3945232 C65.9006704,8.94668866 69.0832869,6.48900146 73.5566313,6.48900146 C78.2598312,6.48900146 81.3363605,8.92900745 81.3363605,12.6597413 L81.3363605,25.5139758 L77.0928718,25.5139758 L77.0928718,22.5258525 L77.0044658,22.5258525 C75.9612748,24.5238284 73.6450373,25.7791938 71.1696689,25.7791938 Z M86.0926041,25.5139758 L86.0926041,10.1666917 L83.5288297,10.1666917 L83.5288297,6.7719007 L86.0926041,6.7719007 L86.0926041,5.07450523 C86.0926041,1.50290224 87.736956,0.0176812029 91.838995,0.0176812029 C92.616968,0.0176812029 93.3065349,0.0707248115 93.9607394,0.176812029 L93.9607394,3.34174734 C93.5894341,3.28870374 93.1120416,3.23566013 92.5816056,3.23566013 C91.0787033,3.23566013 90.4244988,3.85450223 90.4244988,5.28667966 L90.4244988,6.7719007 L93.9784206,6.7719007 L93.9784206,10.1666917 L90.4952236,10.1666917 L90.4952236,25.5139758 L86.0926041,25.5139758 Z M98.1335033,2.38696239 L102.536123,2.38696239 L102.536123,6.7719007 L106.072363,6.7719007 L106.072363,10.1666917 L102.536123,10.1666917 L102.536123,19.8913532 C102.536123,21.4296179 103.243371,22.1545472 104.799317,22.1545472 C105.205984,22.1545472 105.771783,22.1015036 106.054682,22.0661412 L106.054682,25.4255697 C105.57729,25.531657 104.710911,25.6023818 103.773807,25.6023818 C99.7248115,25.6023818 98.1335033,24.1525231 98.1335033,20.5101953 L98.1335033,10.1666917 L95.4459604,10.1666917 L95.4459604,6.7719007 L98.1335033,6.7719007 L98.1335033,2.38696239 Z M108.724544,12.20003 C108.724544,8.78755783 111.748029,6.50668266 116.30978,6.50668266 C120.712399,6.50668266 123.735885,8.82292024 123.80661,12.2707548 L119.704571,12.2707548 C119.598484,10.6971277 118.254712,9.72466158 116.221374,9.72466158 C114.294123,9.72466158 113.003395,10.6087217 113.003395,11.9348119 C113.003395,12.9780029 113.852093,13.6675698 115.690938,14.1095999 L119.032685,14.8522104 C122.7811,15.7362706 124.24864,17.1507668 124.24864,19.9267156 C124.24864,23.4275938 120.959936,25.796875 116.239055,25.796875 C111.553536,25.796875 108.530051,23.4806374 108.247151,19.9620781 L112.579046,19.9620781 C112.826583,21.6417923 114.188035,22.5788961 116.398186,22.5788961 C118.537611,22.5788961 119.863702,21.7301983 119.863702,20.3510645 C119.863702,19.2901923 119.174135,18.7243938 117.352971,18.2646826 L113.940499,17.4690284 C110.474983,16.6556931 108.724544,14.8698916 108.724544,12.20003 Z" id="path-4"></path>
        <filter x="-3.7%" y="-9.7%" width="107.3%" height="127.1%" filterUnits="objectBoundingBox" id="filter-5">
            <feOffset dx="0" dy="1" in="SourceAlpha" result="shadowOffsetOuter1"></feOffset>
            <feGaussianBlur stdDeviation="1" in="shadowOffsetOuter1" result="shadowBlurOuter1"></feGaussianBlur>
            <feColorMatrix values="0 0 0 0 0   0 0 0 0 0   0 0 0 0 0  0 0 0 0.5 0" type="matrix" in="shadowBlurOuter1"></feColorMatrix>
        </filter>
    </defs>
    <g id="drafts-site-header" stroke="none" stroke-width="1" fill="none" fill-rule="evenodd">
        <g id="Rectangle-2">
            <use fill="#00408B" xlink:href="#path-2"></use>
            <use fill-opacity="0.769999981" fill="url(#linearGradient-1)" xlink:href="#path-2"></use>
        </g>
        <g id="Group-2" transform="translate(10.000000, 113.000000)">
            <g id="Group" filter="url(#filter-3)" transform="translate(0.000000, 4.000000)" fill="#FFFFFF" fill-rule="nonzero">
                <path d="M18.9275578,15.9637789 C18.9275578,16.536068 19.3914898,17 19.9637789,17 C20.536068,17 21,16.536068 21,15.9637789 L21,1.03622111 C21,0.463931994 20.536068,0 19.9637789,0 L5.03622111,0 C4.46393199,0 4,0.463931994 4,1.03622111 C4,1.60851023 4.46393199,2.07244222 5.03622111,2.07244222 L18.9275578,2.07244222 L18.9275578,15.9637789 Z" id="Path-2"></path>
                <path d="M15.1665024,6.3334976 L15.1665024,12.3332512 C15.1665024,12.7014864 15.465016,13 15.8332512,13 C16.2014864,13 16.5,12.7014864 16.5,12.3332512 L16.5,5.6667488 C16.5,5.29851361 16.2014864,5 15.8332512,5 L9.1667488,5 C8.79851361,5 8.5,5.29851361 8.5,5.6667488 C8.5,6.03498399 8.79851361,6.3334976 9.1667488,6.3334976 L15.1665024,6.3334976 Z" id="Path-2"></path>
                <path d="M14.9275578,6.07244222 L14.9275578,19.9637789 C14.9275578,20.536068 15.3914898,21 15.9637789,21 C16.536068,21 17,20.536068 17,19.9637789 L17,5.03622111 C17,4.46393199 16.536068,4 15.9637789,4 L1.03622111,4 C0.463931994,4 0,4.46393199 0,5.03622111 C0,5.60851023 0.463931994,6.07244222 1.03622111,6.07244222 L14.9275578,6.07244222 Z" id="Path-2" transform="translate(8.500000, 12.500000) rotate(-180.000000) translate(-8.500000, -12.500000) "></path>
            </g>
            <g id="Drafts">
                <use fill="black" fill-opacity="1" filter="url(#filter-5)" xlink:href="#path-4"></use>
                <use fill="#FFFFFF" fill-rule="evenodd" xlink:href="#path-4"></use>
            </g>
        </g>
        <path d="M344.188338,43.5336689 C344.532627,48.7861337 344.767096,52.3364833 344.767096,52.3364833 C204.480316,52.3364833 23.7292836,52.3364833 -117.681503,52.3364833 L-118.750964,35.4698657 L-109.75993,26.4892521 L-119.966782,16.2950241 L-121,0 C20.4107868,0 200.412481,0 341.448599,0 C341.448599,0.475356604 341.620687,3.44824663 341.886487,7.75653216 L331.921301,7.75653217 L342.543006,18.1722595 C342.866638,23.2356895 343.222823,28.7375 343.553503,33.8168038 L331.921301,45.2234325 L342.496614,45.2234325 L344.188338,43.5336689 Z M-107.106191,45.2234325 L-88.3502726,26.4892521 L-107.106191,7.75653217 L-117.681503,7.75653217 L-98.6525199,26.4165036 L-98.577588,26.4899823 L-98.65392,26.5648341 L-117.681503,45.2234325 L-107.106191,45.2234325 Z M-85.6965333,45.2234325 L-66.9406152,26.4892521 L-85.6965333,7.75653217 L-96.2718458,7.75653217 L-77.2428625,26.4165036 L-77.1679307,26.4899823 L-77.2442627,26.5648341 L-96.2718458,45.2234325 L-85.6965333,45.2234325 Z M-64.2868759,45.2234325 L-45.5309579,26.4892521 L-64.2868759,7.75653217 L-74.8621884,7.75653217 L-55.8332052,26.4165036 L-55.7582733,26.4899823 L-55.8346053,26.5648341 L-74.8621884,45.2234325 L-64.2868759,45.2234325 Z M-42.8772186,45.2234325 L-24.1213005,26.4892521 L-42.8772186,7.75653217 L-53.4525311,7.75653217 L-34.4235478,26.4165036 L-34.348616,26.4899823 L-34.424948,26.5648341 L-53.4525311,45.2234325 L-42.8772186,45.2234325 Z M-21.4675612,45.2234325 L-2.71164317,26.4892521 L-21.4675612,7.75653217 L-32.0428737,7.75653217 L-13.0138905,26.4165036 L-12.9389586,26.4899823 L-13.0152907,26.5648341 L-32.0428737,45.2234325 L-21.4675612,45.2234325 Z M-0.0579038774,45.2234325 L18.6980142,26.4892521 L-0.0579038774,7.75653217 L-10.6332164,7.75653217 L8.39576684,26.4165036 L8.4706987,26.4899823 L8.39436669,26.5648341 L-10.6332164,45.2234325 L-0.0579038774,45.2234325 Z M21.3517535,45.2234325 L40.1076715,26.4892521 L21.3517535,7.75653217 L10.776441,7.75653217 L29.8054242,26.4165036 L29.880356,26.4899823 L29.804024,26.5648341 L10.776441,45.2234325 L21.3517535,45.2234325 Z M42.7614108,45.2234325 L61.5173289,26.4892521 L42.7614108,7.75653217 L32.1860983,7.75653217 L51.2150815,26.4165036 L51.2900134,26.4899823 L51.2136814,26.5648341 L32.1860983,45.2234325 L42.7614108,45.2234325 Z M64.1710682,45.2234325 L82.9269862,26.4892521 L64.1710682,7.75653217 L53.5957556,7.75653217 L72.6247389,26.4165036 L72.6996707,26.4899823 L72.6233387,26.5648341 L53.5957556,45.2234325 L64.1710682,45.2234325 Z M85.5807255,45.2234325 L104.336644,26.4892521 L85.5807255,7.75653217 L75.005413,7.75653217 L94.0343962,26.4165036 L94.1093281,26.4899823 L94.0329961,26.5648341 L75.005413,45.2234325 L85.5807255,45.2234325 Z M106.990383,45.2234325 L125.746301,26.4892521 L106.990383,7.75653217 L96.4150703,7.75653217 L115.444054,26.4165036 L115.518985,26.4899823 L115.442653,26.5648341 L96.4150703,45.2234325 L106.990383,45.2234325 Z M128.40004,45.2234325 L147.155958,26.4892521 L128.40004,7.75653217 L117.824728,7.75653217 L136.853711,26.4165036 L136.928643,26.4899823 L136.852311,26.5648341 L117.824728,45.2234325 L128.40004,45.2234325 Z M149.809698,45.2234325 L168.565616,26.4892521 L149.809698,7.75653217 L139.234385,7.75653217 L158.263368,26.4165036 L158.3383,26.4899823 L158.261968,26.5648341 L139.234385,45.2234325 L149.809698,45.2234325 Z M171.219355,45.2234325 L189.975273,26.4892521 L171.219355,7.75653217 L160.644042,7.75653217 L179.673026,26.4165036 L179.747957,26.4899823 L179.671625,26.5648341 L160.644042,45.2234325 L171.219355,45.2234325 Z M192.629012,45.2234325 L211.38493,26.4892521 L192.629012,7.75653217 L182.0537,7.75653217 L201.082683,26.4165036 L201.157615,26.4899823 L201.081283,26.5648341 L182.0537,45.2234325 L192.629012,45.2234325 Z M214.03867,45.2234325 L232.794588,26.4892521 L214.03867,7.75653217 L203.463357,7.75653217 L222.49234,26.4165036 L222.567272,26.4899823 L222.49094,26.5648341 L203.463357,45.2234325 L214.03867,45.2234325 Z M235.448327,45.2234325 L254.204245,26.4892521 L235.448327,7.75653217 L224.873014,7.75653217 L243.901998,26.4165036 L243.976929,26.4899823 L243.900597,26.5648341 L224.873014,45.2234325 L235.448327,45.2234325 Z M256.857984,45.2234325 L275.613902,26.4892521 L256.857984,7.75653217 L246.282672,7.75653217 L265.311655,26.4165036 L265.386587,26.4899823 L265.310255,26.5648341 L246.282672,45.2234325 L256.857984,45.2234325 Z M278.267642,45.2234325 L297.02356,26.4892521 L278.267642,7.75653217 L267.692329,7.75653217 L286.721312,26.4165036 L286.796244,26.4899823 L286.719912,26.5648341 L267.692329,45.2234325 L278.267642,45.2234325 Z M299.677299,45.2234325 L318.433217,26.4892521 L299.677299,7.75653217 L289.101986,7.75653217 L308.13097,26.4165036 L308.205902,26.4899823 L308.12957,26.5648341 L289.101986,45.2234325 L299.677299,45.2234325 Z M321.086956,45.2234325 L339.842874,26.4892521 L321.086956,7.75653217 L310.511644,7.75653217 L329.540627,26.4165036 L329.615559,26.4899823 L329.539227,26.5648341 L310.511644,45.2234325 L321.086956,45.2234325 Z" id="Combined-Shape" fill="#FFFFFF" opacity="0.0620471014"></path>
        <g id="Group" opacity="0.543761322" transform="translate(10.000000, 20.000000)" fill="#FFFFFF" fill-rule="nonzero">
            <g id="Group-3" opacity="0.660722373">
                <path d="M143.486329,13.2311195 L136.709209,13.2311195 C136.241346,13.2311195 135.862069,13.6198757 135.862069,14.0994307 C135.862069,14.5789858 136.241346,14.9677419 136.709209,14.9677419 L143.486329,14.9677419 C143.954191,14.9677419 144.333469,14.5789858 144.333469,14.0994307 C144.333469,13.6198757 143.954191,13.2311195 143.486329,13.2311195 Z M136.711207,3.28500949 L148.599138,3.28500949 C149.068104,3.28500949 149.448276,2.89625332 149.448276,2.41669829 C149.448276,1.93714326 149.068104,1.5483871 148.599138,1.5483871 L136.711207,1.5483871 C136.242241,1.5483871 135.862069,1.93714326 135.862069,2.41669829 C135.862069,2.89625332 136.242241,3.28500949 136.711207,3.28500949 Z M148.599138,9.44212524 L136.711207,9.44212524 C136.242241,9.44212524 135.862069,9.8308814 135.862069,10.3104364 C135.862069,10.7899915 136.242241,11.1787476 136.711207,11.1787476 L148.599138,11.1787476 C149.068104,11.1787476 149.448276,10.7899915 149.448276,10.3104364 C149.448276,9.8308814 149.068104,9.44212524 148.599138,9.44212524 Z M148.599138,5.49525617 L136.711207,5.49525617 C136.242241,5.49525617 135.862069,5.88401233 135.862069,6.36356736 C135.862069,6.84312239 136.242241,7.23187856 136.711207,7.23187856 L148.599138,7.23187856 C149.068104,7.23187856 149.448276,6.84312239 149.448276,6.36356736 C149.448276,5.88401233 149.068104,5.49525617 148.599138,5.49525617 Z" id="align-justify-left"></path>
                <path d="M122.243203,6.58743989 C122.838429,6.58743989 123.320955,6.11312368 123.320955,5.52802498 C123.320955,4.94292628 122.838429,4.46861006 122.243203,4.46861006 L120.545003,4.46861006 L120.797779,2.48114768 C120.871603,1.90062059 120.452693,1.37118257 119.862118,1.29861474 C119.271543,1.2260469 118.732941,1.6378292 118.659117,2.21835628 L118.373017,4.46861006 L114.796993,4.46861006 L115.049769,2.48114768 C115.123593,1.90062059 114.704683,1.37118257 114.114108,1.29861474 C113.523532,1.2260469 112.98493,1.6378292 112.911107,2.21835628 L112.625006,4.46861006 L110.747182,4.46861006 C110.151956,4.46861006 109.66943,4.94292628 109.66943,5.52802498 C109.66943,6.11312368 110.151956,6.58743989 110.747182,6.58743989 L112.355568,6.58743989 L111.996318,9.41254634 L110.02868,9.41254634 C109.433454,9.41254634 108.950928,9.88686255 108.950928,10.4719613 C108.950928,11.05706 109.433454,11.5313762 110.02868,11.5313762 L111.72688,11.5313762 L111.474104,13.5188386 C111.438565,13.7976325 111.517194,14.0788813 111.692681,14.3006694 C111.868167,14.5224574 112.126125,14.6666025 112.409765,14.7013716 C112.454576,14.7068544 112.499687,14.7096188 112.544843,14.7096492 C113.08784,14.7089576 113.545496,14.3112479 113.612773,13.7816017 L113.898873,11.5314044 L117.474898,11.5314044 L117.222122,13.5188668 C117.186583,13.7976607 117.265212,14.0789096 117.440698,14.3006976 C117.616185,14.5224857 117.874142,14.6666307 118.157783,14.7013999 C118.202593,14.7068826 118.247705,14.7096471 118.292861,14.7096774 C118.835858,14.7089858 119.293514,14.3112762 119.360791,13.78163 L119.646891,11.5314327 L121.524702,11.5314327 C122.119928,11.5314327 122.602454,11.0571165 122.602454,10.4720178 C122.602454,9.88691905 122.119928,9.41260284 121.524702,9.41260284 L119.916315,9.41260284 L120.275565,6.5874964 L122.243203,6.58743989 Z M117.744328,9.41254634 L114.168304,9.41254634 L114.527555,6.58743989 L118.103579,6.58743989 L117.744328,9.41254634 Z" id="hashtag"></path>
                <path d="M83.23729,7.07096774 C82.5759278,7.07096774 82.0397878,7.60244907 82.0397878,8.25806452 C82.0397878,8.91367996 82.5759278,9.44516129 83.23729,9.44516129 C83.8986522,9.44516129 84.4347922,8.91367996 84.4347922,8.25806452 C84.4347592,7.60246265 83.8986385,7.07100052 83.23729,7.07096774 Z M83.23729,2.32258065 C82.5759278,2.32258065 82.0397878,2.85406197 82.0397878,3.50967742 C82.0397878,4.16529286 82.5759278,4.69677419 83.23729,4.69677419 C83.8986522,4.69677419 84.4347922,4.16529286 84.4347922,3.50967742 C84.4347592,2.85407555 83.8986385,2.32261342 83.23729,2.32258065 Z M83.23729,11.8193548 C82.5759278,11.8193548 82.0397878,12.3508362 82.0397878,13.0064516 C82.0397878,13.6620671 82.5759278,14.1935484 83.23729,14.1935484 C83.8986522,14.1935484 84.4347922,13.6620671 84.4347922,13.0064516 C84.4347592,12.3508497 83.8986385,11.8193876 83.23729,11.8193548 Z M88.0272989,4.69677419 L95.2123121,4.69677419 C95.8736743,4.69677419 96.4098143,4.16529286 96.4098143,3.50967742 C96.4098143,2.85406197 95.8736743,2.32258065 95.2123121,2.32258065 L88.0272989,2.32258065 C87.3659366,2.32258065 86.8297966,2.85406197 86.8297966,3.50967742 C86.8297966,4.16529286 87.3659366,4.69677419 88.0272989,4.69677419 Z M95.2123121,7.07096774 L88.0272989,7.07096774 C87.3659366,7.07096774 86.8297966,7.60244907 86.8297966,8.25806452 C86.8297966,8.91367996 87.3659366,9.44516129 88.0272989,9.44516129 L95.2123121,9.44516129 C95.8736743,9.44516129 96.4098143,8.91367996 96.4098143,8.25806452 C96.4098143,7.60244907 95.8736743,7.07096774 95.2123121,7.07096774 Z M95.2123121,11.8193548 L88.0272989,11.8193548 C87.3659366,11.8193548 86.8297966,12.3508362 86.8297966,13.0064516 C86.8297966,13.6620671 87.3659366,14.1935484 88.0272989,14.1935484 L95.2123121,14.1935484 C95.8736743,14.1935484 96.4098143,13.6620671 96.4098143,13.0064516 C96.4098143,12.3508362 95.8736743,11.8193548 95.2123121,11.8193548 Z" id="list"></path>
                <path d="M68.3011596,3.84516129 L63.5112465,3.84516129 L63.5112465,7.40645161 L65.0594467,7.40645161 C65.3016101,7.40644492 65.5199298,7.55105305 65.6125947,7.77283938 C65.7052596,7.99462571 65.6540188,8.24990835 65.482768,8.41963871 L62.3137323,11.5612903 L59.144511,8.41963871 C58.9733001,8.24986589 58.9221086,7.99457465 59.0148057,7.77279924 C59.1075027,7.55102384 59.3258345,7.40643566 59.568,7.40645161 L61.1162181,7.40645161 L61.1162181,2.95512955 L60.5173173,2.06451613 L56.3261614,2.06451613 C55.6648063,2.06454891 55.1286803,2.59601104 55.1286472,3.2516129 L55.1286472,12.7483871 C55.1286803,13.403989 55.6648063,13.9354511 56.3261614,13.9354839 L68.3011596,13.9354839 C68.9625147,13.9354511 69.4986407,13.403989 69.4986737,12.7483871 L69.4986737,5.03225806 C69.4986407,4.3766562 68.9625147,3.84519407 68.3011596,3.84516129 Z" id="folder-download"></path>
                <path d="M26.6498674,0.258064516 L26.6498674,3.40645161 C26.6498674,4.2758547 27.363421,4.98064516 28.243634,4.98064516 C29.1238469,4.98064516 29.8374005,4.2758547 29.8374005,3.40645161 L33.0249337,3.40645161 L33.0249337,12.8516129 L32.2280504,12.8516129 C31.3478374,12.8516129 30.6342838,13.5564034 30.6342838,14.4258065 C30.6342838,15.2952095 31.3478374,16 32.2280504,16 L37.0093501,16 C37.8895631,16 38.6031167,15.2952095 38.6031167,14.4258065 C38.6031167,13.5564034 37.8895631,12.8516129 37.0093501,12.8516129 L36.2124668,12.8516129 L36.2124668,3.40645161 L39.4,3.40645161 C39.4,4.2758547 40.1135536,4.98064516 40.9937666,4.98064516 C41.8739796,4.98064516 42.5875332,4.2758547 42.5875332,3.40645161 L42.5875332,0.258064516 L26.6498674,0.258064516 Z" id="typography"></path>
                <path d="M4.19125774,3.35483871 L2.39500442,3.35483871 C1.75980635,3.35482763 1.15062114,3.60632105 0.701468278,4.05399093 C0.252315412,4.50166082 -1.11162581e-05,5.10883466 0,5.74193548 L0,7.53225806 C-1.11162581e-05,8.16535889 0.252315412,8.77253273 0.701468278,9.22020262 C1.15062114,9.6678725 1.75980635,9.91936592 2.39500442,9.91935484 L4.19125774,9.91935484 C4.39363444,9.91677037 4.5948493,9.88840852 4.79000884,9.83495903 L4.79000884,9.91935484 C4.78925324,10.5782212 4.25355561,11.1121501 3.59250663,11.1129032 L3.59250663,12.9032258 C5.2451079,12.9012922 6.58432212,11.5664997 6.58626216,9.91935484 L6.58626216,7.83064516 L6.55607911,7.83064516 C6.57248463,7.73192219 6.58256604,7.63225816 6.58626216,7.53225806 L6.58626216,5.74193548 C6.58627486,5.10883417 6.33394884,4.50165941 5.88479563,4.05398918 C5.43564242,3.60631895 4.8264563,3.35482605 4.19125774,3.35483871 Z M14.3700265,5.74193548 C14.3700392,5.10883417 14.1177132,4.50165941 13.66856,4.05398918 C13.2194068,3.60631895 12.6102207,3.35482605 11.9750221,3.35483871 L10.1787688,3.35483871 C9.54357072,3.35482763 8.93438551,3.60632105 8.48523265,4.05399093 C8.03607978,4.50166082 7.78375325,5.10883466 7.78376437,5.74193548 L7.78376437,7.53225806 C7.78375325,8.16535889 8.03607978,8.77253273 8.48523265,9.22020262 C8.93438551,9.6678725 9.54357072,9.91936592 10.1787688,9.91935484 L11.9750221,9.91935484 C12.1773988,9.91677037 12.3786137,9.88840852 12.5737732,9.83495903 L12.5737732,9.91935484 C12.5730176,10.5782212 12.03732,11.1121501 11.376271,11.1129032 L11.376271,12.9032258 C13.0288723,12.9012922 14.3680865,11.5664997 14.3700265,9.91935484 L14.3700265,7.83064516 L14.3398435,7.83064516 C14.356249,7.73192219 14.3663304,7.63225816 14.3700265,7.53225806 L14.3700265,5.74193548 Z" id="quote-close"></path>
            </g>
        </g>
    </g>
</svg>