<svg height="100" viewBox="0 0 764 100" width="764" xmlns="http://www.w3.org/2000/svg"><g fill="#fff"><g opacity=".672045" transform="translate(30 38)"><path d="m246.944444 8.35794422c-.582967 0-1.055555.46745449-1.055555 1.04408883v4.17635535c0 4.0364404-3.308118 7.3086218-7.388889 7.3086218s-7.388889-3.2721814-7.388889-7.3086218v-4.17635535c0-.57663434-.472588-1.04408883-1.055555-1.04408883-.582968 0-1.055556.46745449-1.055556 1.04408883v4.17635535c.002296 4.7839736 3.637878 8.802602 8.444444 9.3341541v2.150823h2.111112v-2.150823c4.806566-.5315521 8.442148-4.5501805 8.444444-9.3341541v-4.17635535c0-.57663434-.472588-1.04408883-1.055556-1.04408883zm-11.611111 5.22044418c0 .5766343-.472588 1.0440888-1.055555 1.0440888h-.95c.499481 2.4330653 2.662236 4.1815889 5.172222 4.1815889s4.672741-1.7485236 5.172222-4.1815889h-.95c-.582967 0-1.055555-.4674545-1.055555-1.0440888 0-.5766344.472588-1.0440889 1.055555-1.0440889h1.055556v-2.0881776h-1.055556c-.582967 0-1.055555-.46745451-1.055555-1.04408885s.472588-1.04408883 1.055555-1.04408883h1.055556v-2.08817767h-1.055556c-.582967 0-1.055555-.46745449-1.055555-1.04408883s.472588-1.04408883 1.055555-1.04408883h.95c-.499481-2.43306524-2.662236-4.18158889-5.172222-4.18158889s-4.672741 1.74852365-5.172222 4.18158889h.95c.582967 0 1.055555.46745449 1.055555 1.04408883s-.472588 1.04408883-1.055555 1.04408883h-1.055556v2.08817767h1.055556c.582967 0 1.055555.46745449 1.055555 1.04408883s-.472588 1.04408885-1.055555 1.04408885h-1.055556v2.0881776h1.055556c.582967 0 1.055555.4674545 1.055555 1.0440889z"/><path d="m5.54166667 4h-2.375c-.83985673-.00001461-1.64531932.33159056-2.23918771.92186305-.59386838.5902725-.92749366 1.390858-.92747896 2.22562937v2.36061931c-.0000147.83477137.33361058 1.63535687.92747896 2.22562937.59386839.5902725 1.39933098.9218777 2.23918771.921863h2.375c.26758178-.0034077.53362738-.040804.79166666-.1112796v.1112796c-.00099905.8687444-.70929663 1.5727532-1.58333333 1.5737462v2.3606194c2.18506375-.0025496 3.95576822-1.7625324 3.95833333-3.9343656v-2.75405582h-.03990791c.02169131-.13017059.03502092-.26158201.03990791-.39343655v-2.36061931c.0000168-.83477201-.3336078-1.63535873-.92747664-2.22563167-.59386884-.59027295-1.39933266-.92187745-2.23919002-.92186075zm13.45833333 3.14749242c.0000168-.83477201-.3336078-1.63535873-.9274766-2.22563167-.5938689-.59027295-1.3993327-.92187745-2.2391901-.92186075h-2.375c-.8398567-.00001461-1.6453193.33159056-2.2391877.92186305-.5938684.5902725-.9274936 1.390858-.9274789 2.22562937v2.36061931c-.0000147.83477137.3336105 1.63535687.9274789 2.22562937s1.399331.9218777 2.2391877.921863h2.375c.2675818-.0034077.5336274-.040804.7916667-.1112796v.1112796c-.0009991.8687444-.7092966 1.5727532-1.5833333 1.5737462v2.3606194c2.1850637-.0025496 3.9557682-1.7625324 3.9583333-3.9343656v-2.75405582h-.0399079c.0216913-.13017059.0350209-.26158201.0399079-.39343655z"/><path d="m431.875183.00000046h-4.749878c-3.626259-.00128641-6.674564 2.72160559-7.080152 6.32433014s1.961043 6.9349558 5.49686 7.739613v4.9314492l5.541524-4.7488481h.791646c3.934928 0 7.124817-3.1891975 7.124817-7.12327211 0-3.93407457-3.189889-7.12327213-7.124817-7.12327213zm-1.583292 9.49769618h-4.749878c-.437214 0-.791647-.35435529-.791647-.79147468 0-.4371194.354433-.79147468.791647-.79147468h4.749878c.437214 0 .791646.35435528.791646.79147468 0 .43711939-.354432.79147468-.791646.79147468zm3.166585-3.16589873h-7.916463c-.437214 0-.791647-.35435528-.791647-.79147468s.354433-.79147468.791647-.79147468h7.916463c.437214 0 .791646.35435528.791646.79147468s-.354432.79147468-.791646.79147468z"/><path d="m116.583333 9.36124783c-.874451 0-1.583333.71200687-1.583333 1.59031197 0 .878305.708882 1.5903119 1.583333 1.5903119s1.583334-.7120069 1.583334-1.5903119c-.000044-.8782869-.708901-1.59026806-1.583334-1.59031197zm0-6.36124783c-.874451 0-1.583333.71200692-1.583333 1.59031196s.708882 1.59031195 1.583333 1.59031195 1.583334-.71200691 1.583334-1.59031195c-.000044-.87828686-.708901-1.59026805-1.583334-1.59031196zm0 12.7224957c-.874451 0-1.583333.7120069-1.583333 1.5903119 0 .8783051.708882 1.590312 1.583333 1.590312s1.583334-.7120069 1.583334-1.590312c-.000044-.8782868-.708901-1.590268-1.583334-1.5903119zm6.333334-9.54187179h9.5c.874451 0 1.583333-.71200691 1.583333-1.59031195s-.708882-1.59031196-1.583333-1.59031196h-9.5c-.874451 0-1.583334.71200692-1.583334 1.59031196s.708883 1.59031195 1.583334 1.59031195zm9.5 3.18062392h-9.5c-.874451 0-1.583334.71200687-1.583334 1.59031197 0 .878305.708883 1.5903119 1.583334 1.5903119h9.5c.874451 0 1.583333-.7120069 1.583333-1.5903119 0-.8783051-.708882-1.59031197-1.583333-1.59031197zm0 6.36124787h-9.5c-.874451 0-1.583334.7120069-1.583334 1.5903119 0 .8783051.708883 1.590312 1.583334 1.590312h9.5c.874451 0 1.583333-.7120069 1.583333-1.590312 0-.878305-.708882-1.5903119-1.583333-1.5903119z"/><path d="m201.662353 17.5371655h-9.477647c-.654295 0-1.184706.5502929-1.184706 1.2291137 0 .6788207.530411 1.2291136 1.184706 1.2291136h9.477647c.654295 0 1.184706-.5502929 1.184706-1.2291136 0-.6788208-.530411-1.2291137-1.184706-1.2291137zm-9.474853-14.07893819h16.625c.655838 0 1.1875-.55029293 1.1875-1.22911366 0-.67882072-.531662-1.22911365-1.1875-1.22911365h-16.625c-.655838 0-1.1875.55029293-1.1875 1.22911365 0 .67882073.531662 1.22911366 1.1875 1.22911366zm16.625 8.71553319h-16.625c-.655838 0-1.1875.5502929-1.1875 1.2291136 0 .6788208.531662 1.2291137 1.1875 1.2291137h16.625c.655838 0 1.1875-.5502929 1.1875-1.2291137 0-.6788207-.531662-1.2291136-1.1875-1.2291136zm0-5.58688026h-16.625c-.655838 0-1.1875.55029293-1.1875 1.22911366 0 .67882072.531662 1.22911365 1.1875 1.22911365h16.625c.655838 0 1.1875-.55029293 1.1875-1.22911365 0-.67882073-.531662-1.22911366-1.1875-1.22911366z"/><path d="m514.099611 1.87975241h-1.899905v-.9398762c0-.5190793-.425309-.93987621-.949953-.93987621s-.949952.42079691-.949952.93987621v.9398762h-2.850323v-.9398762c0-.5190793-.425309-.93987621-.949953-.93987621s-.949952.42079691-.949952.93987621v.9398762h-2.849393v-.9398762c0-.5190793-.425308-.93987621-.949952-.93987621s-.949953.42079691-.949953.93987621v.9398762h-1.899905c-.504011-.00000747-.987382.19808342-1.343773.55069337-.35639.35260995-.556605.83085382-.556597 1.32951959v16.91731123c.000031 1.0381457.850629 1.8797212 1.899905 1.8797524h15.19924c1.049276-.0000312 1.899874-.8416067 1.899905-1.8797524v-11.27851453h.00095v-5.6387967c.000008-.49866903-.20021-.97691575-.556604-1.32952624s-.83977-.55069918-1.343785-.55068672zm-2.850323 15.03801929h-9.499525c-.524645 0-.949953-.4207969-.949953-.9398762s.425308-.9398762.949953-.9398762h9.499525c.524644 0 .949952.4207969.949952.9398762s-.425308.9398762-.949952.9398762zm0-5.6392572h-9.499525c-.524645 0-.949953-.4207969-.949953-.9398762 0-.51907932.425308-.93987623.949953-.93987623h9.499525c.524644 0 .949952.42079691.949952.93987623 0 .5190793-.425308.9398762-.949952.9398762z"/><path d="m667.1 0h-2.85v9.39876207l-2.85-1.87975241-2.85 1.87975241v-9.39876207h-8.55v22.557029h17.1c1.049328-.0000312 1.899969-.8416067 1.9-1.8797524v-18.79752419c0-1.03815859-.850659-1.87975241-1.9-1.87975241z"/><path d="m462.958333 2.5829494h11.083334c.437225 0 .791666-.35435529.791666-.7914747s-.354441-.7914747-.791666-.7914747h-11.083334c-.437225 0-.791666.35435529-.791666.7914747s.354441.7914747.791666.7914747zm-1.583333 3.16589881h14.25c.437225 0 .791667-.3543553.791667-.79147471 0-.4371194-.354442-.7914747-.791667-.7914747h-14.25c-.437225 0-.791667.3543553-.791667.7914747 0 .43711941.354442.79147471.791667.79147471zm15.041667 1.5829494h-15.833334c-.874451 0-1.583333.70871058-1.583333 1.5829494v1.86815729l8.504622 3.9244323c.631553.2916541 1.359317.2915123 1.990756-.0003878l8.504622-3.924092v-1.86810979c-.000026-.87422795-.708893-1.58292318-1.583333-1.5829494zm-7.916667 9.17722039c-.572771-.0000066-1.13871-.1243492-1.658708-.3644345l-7.841292-3.6186382v5.8864981c0 .8742388.708882 1.5829494 1.583333 1.5829494h15.833334c.874451 0 1.583333-.7087106 1.583333-1.5829494v-5.8865772l-7.841292 3.6183374c-.519913.2403804-1.08589.3648609-1.658708.3648144z"/><path d="m552.416279 1.5829494h-2.374612v-.7914747c0-.43711941-.354442-.7914747-.791667-.7914747s-.791667.35435529-.791667.7914747v.7914747h-7.916666v-.7914747c0-.43711941-.354442-.7914747-.791667-.7914747s-.791667.35435529-.791667.7914747v.7914747h-2.374612c-.420031-.0000063-.82286.16680709-1.119867.46374178-.297006.2969347-.46386.69966637-.463854 1.11959545v14.24575317c-.00001.4199318.166841.8226675.463849 1.1196056.297007.2969382.699839.4637537 1.119872.4637474h15.832542c.420034.0000105.822867-.166801 1.119877-.4637362.29701-.2969351.463866-.6996692.46386-1.119601v-14.24575314c.00001-.41993182-.166841-.82266756-.463849-1.11960568-.297007-.29693812-.699839-.46375368-1.119872-.46374738zm-13.457946 3.16589881c0-.43711941.354442-.79147471.791667-.79147471s.791667.3543553.791667.79147471c0 .4371194-.354442.7914747-.791667.7914747s-.791667-.3543553-.791667-.7914747zm3.958334 10.28917109c0 .4371194-.354442.7914747-.791667.7914747s-.791667-.3543553-.791667-.7914747v-5.05106489l-.437578.21873989c-.390918.1942552-.865348.0355264-1.060578-.35483466-.19523-.3903611-.03759-.86505192.352401-1.06116109l1.583333-.7914747c.245428-.12265867.536881-.10953128.770282.03469437s.37547.39898508.375474.67330349zm3.958333.7914747h-1.583333c-.437226 0-.791667-.3543553-.791667-.7914747s.354441-.7914747.791667-.7914747h1.583333c.437225 0 .791667-.3543553.791667-.7914747s-.354442-.7914747-.791667-.7914747h-1.583333c-.20998.0000546-.411375-.0833151-.559854-.2317573-.148478-.1484421-.231868-.3497885-.231813-.5597174v-3.16589879c-.000055-.20992888.083335-.41127529.231813-.55971743.148479-.14844213.349874-.23181187.559854-.23175727h2.770833c.437225 0 .791667.35435529.791667.7914747s-.354442.7914747-.791667.7914747h-1.979167v1.58294939h.791667c1.311676 0 2.375 1.0630659 2.375 2.3744241s-1.063324 2.3744241-2.375 2.3744241zm2.375-10.28917109c-.437225 0-.791667-.3543553-.791667-.7914747 0-.43711941.354442-.79147471.791667-.79147471s.791667.3543553.791667.79147471c0 .4371194-.354442.7914747-.791667.7914747z"/><path d="m705.416651 4.39941804h-8.708421l-1.583349-2.39941804h-5.541532c-.874441.00004417-1.583305.71618899-1.583349 1.59961203v12.79689617c.000044.8834231.708908 1.5995679 1.583349 1.5996121h6.333397v-4.7988361h-2.047025c-.320189.0000183-.608864-.1948154-.731425-.4936569-.122562-.2988414-.054876-.6428443.171497-.871612l4.190334-4.2333732 4.190333 4.2333732c.226346.2287399.294046.5726904.171539.8715123s-.411103.4936875-.731253.4937566h-2.047223v4.7988361h6.333128c.874441-.0000442 1.583305-.716189 1.583349-1.5996121v-10.39747813c-.000044-.88342303-.708908-1.59956786-1.583349-1.59961203z"/><path d="m93.4166508 5.38546794h-6.3332066v4.77093586h2.047025c.3201875-.000009.6088492.1937175.7313704.4908369.1225212.2971193.0547708.6391125-.1716564.8664944l-4.1900882 4.2087606-4.1903336-4.2087606c-.2263745-.2274387-.2940597-.5694435-.171496-.8665482s.4112413-.4908045.7314316-.4907831h2.0470488v-5.96328021l-.7918646-1.19312359h-5.541532c-.8744415.00004391-1.5833055.7120251-1.5833492 1.59031196v12.72249564c.0000437.8782869.7089077 1.5902681 1.5833492 1.590312h15.8333016c.8744415-.0000439 1.5833055-.7120251 1.5833492-1.590312v-10.33702771c-.0000437-.87828685-.7089077-1.59026804-1.5833492-1.59031195z"/><path d="m587.926069 8.44137564c0-3.00518878-2.429316-5.44137564-5.426031-5.44137564-2.996714 0-5.426031 2.43618686-5.426031 5.44137564-2.354561.10732817-4.176549 2.10848166-4.069523 4.46970146.107025 2.3612197 2.102536 4.1883599 4.457097 4.0810317h10.076915c1.523134.0694291 2.967503-.6812959 3.789028-1.9693844.821525-1.2880884.895396-2.917849.193787-4.2753666-.701609-1.35751756-2.072108-2.236553-3.595242-2.30598216z"/><path d="m170.575 8.14943356c.787006 0 1.425-.64017692 1.425-1.42987517 0-.78969826-.637994-1.42987518-1.425-1.42987518h-2.245354l.33422-2.68244583c.09761-.78352803-.456271-1.49810196-1.237128-1.59604559-.780857-.09794364-1.492994.45783227-1.590604 1.24136028l-.37828 3.03713114h-4.728207l.334219-2.68244583c.09761-.78352803-.456271-1.49810196-1.237128-1.59604559-.780857-.09794364-1.492994.45783227-1.590604 1.24136028l-.37828 3.03713114h-2.482854c-.787006 0-1.425.64017692-1.425 1.42987518 0 .78969825.637994 1.42987517 1.425 1.42987517h2.126604l-.475 3.81300044h-2.601604c-.787006 0-1.425.640177-1.425 1.4298752 0 .7896983.637994 1.4298752 1.425 1.4298752h2.245354l-.33422 2.6824458c-.046989.3762836.056974.7558807.289002 1.0552244.232027.2993438.573098.493894.948126.5408214.059248.0074.118895.0111311.1786.011172.717949-.0009334 1.32306-.5377157 1.412014-1.2525706l.37828-3.0370549h4.728207l-.334219 2.6824459c-.046989.3762836.056974.7558806.289001 1.0552244.232028.2993437.573098.493894.948126.5408213.059249.0074.118895.0111311.1786.0111721.71795-.0009335 1.32306-.5377158 1.412014-1.2525707l.37828-3.0370549h2.482835c.787006 0 1.425-.6401769 1.425-1.4298751 0-.7896983-.637994-1.4298752-1.425-1.4298752h-2.126604l.475-3.81300048zm-5.948396 3.81300044h-4.728207l.475-3.81300044h4.728207z"/><path d="m276.418132.0447144c-4.292758.58608857-7.675149 3.91620765-8.292533 8.16438103-.4817 3.00282777.437166 6.06003597 2.498548 8.31305477 1.170082 1.2826169 1.897057 2.9011654 2.075419 4.6207462h9.60425c.165568-1.7055492.881569-3.3128719 2.041876-4.5837277 1.71529-1.8481414 2.662411-4.269828 2.651719-6.78016502.063883-2.73325366-1.057075-5.36275478-3.079411-7.22356158-2.022335-1.86080679-4.752416-2.77475502-7.499868-2.5107277zm-3.663554 25.8004419c.00004 1.2984771 1.062806 2.351091 2.373806 2.3511299h4.747611c1.311-.0000389 2.373766-1.0526528 2.373805-2.3511299v-2.35113h-9.495222z"/><path d="m38 0v3.79907856c0 1.04908658.850659 1.89953929 1.9 1.89953929s1.9-.85045271 1.9-1.89953929h3.8v11.39723574h-.95c-1.049341 0-1.9.8504527-1.9 1.8995392 0 1.0490866.850659 1.8995393 1.9 1.8995393h5.7c1.049341 0 1.9-.8504527 1.9-1.8995393 0-1.0490865-.850659-1.8995392-1.9-1.8995392h-.95v-11.39723574h3.8c0 1.04908658.850659 1.89953929 1.9 1.89953929s1.9-.85045271 1.9-1.89953929v-3.79907856z"/><path d="m627.545455 0h-12.09091c-.916207-.00001603-1.794893.36385056-2.44275 1.01154989-.647856.64769932-1.011811 1.52617273-1.011795 2.4421579v12.08797721c.000043 1.9074124 1.54667 3.4536649 3.454545 3.4537078h12.09091c1.907877-.0000381 3.454507-1.5462934 3.454545-3.4537078v-12.08797721c.000018-.91598588-.363936-1.79446061-1.011793-2.44216043s-1.526544-1.01156568-2.442752-1.01154736zm-1.071531 6.60597596-5.708516 6.65824784-4.101849-3.0759585c-.247631-.1848109-.377611-.48782441-.340837-.79457311.036774-.30674869.234695-.57047173.518996-.69154423s.611643-.08103814.858368.10497958l2.807242 2.10460316 4.655121-5.42972941c.200827-.23421567.511382-.34352569.814682-.28675403.303299.05677166.553265.27100004.655737.56198736.102472.29098733.041883.6145257-.158944.84874134z"/></g><g transform="translate(355 22)"><path d="m51.0751516 44.5981869c0 1.5988105 1.2928834 2.8949025 2.8877361 2.8949025 1.5948526 0 2.8877361-1.296092 2.8877361-2.8949025v-41.70328444c0-1.59881048-1.2928835-2.89490246-2.8877361-2.89490246h-41.6000476c-1.5948526 0-2.88773614 1.29609198-2.88773614 2.89490246s1.29288354 2.89490246 2.88773614 2.89490246h38.7123115z"/><path d="m40.5507651 16.3403092v15.5194258c0 .9525056.7702469 1.7246639 1.7203945 1.7246639.9501477 0 1.7203945-.7721583 1.7203945-1.7246639v-17.2440897c0-.9525056-.7702468-1.7246639-1.7203945-1.7246639h-17.2014018c-.9501476 0-1.7203945.7721583-1.7203945 1.7246639s.7702469 1.7246639 1.7203945 1.7246639z"/><path d="m5.77547221 51.2019023h38.71231149c1.5948526 0 2.8877361 1.296092 2.8877361 2.8949025 0 1.5988104-1.2928835 2.8949024-2.8877361 2.8949024h-41.6000476c-1.59485261 0-2.8877361-1.296092-2.8877361-2.8949024v-41.7032845c0-1.5988105 1.29288349-2.89490243 2.8877361-2.89490243 1.59485262 0 2.88773611 1.29609193 2.88773611 2.89490243z"/></g></g></svg>