<svg height="55" viewBox="0 0 55 55" width="55" xmlns="http://www.w3.org/2000/svg"><g fill="none" fill-rule="evenodd" stroke="#3488c8"><g stroke-linecap="round" stroke-linejoin="round" stroke-width="3"><path d="m45.4672622 21.0742351c-1.9835732-8.0800722-9.2754118-14.0742351-17.9672622-14.0742351-8.7895975 0-16.1475176 6.1297398-18.03216353 14.3476225"/><path d="m45.8605583 45.8527108c-.8334435-9.4455974-8.7655404-16.8527108-18.4276613-16.8527108-9.6827278 0-17.62804428 7.4387421-18.432897 16.9131739" transform="matrix(-1 0 0 -1 54.860558 74.913174)"/><path d="m36.4351939 37.9714007c-.3942222-4.467806-4.1461362-7.9714007-8.7163587-7.9714007-4.5799696 0-8.3381366 3.5185553-8.7188352 8" transform="matrix(-1 0 0 -1 55.435194 68)"/></g><circle cx="22" cy="20" fill="#3488c8" r="2"/><circle cx="33" cy="20" fill="#3488c8" r="2"/></g></svg>