<svg height="67" viewBox="0 0 67 67" width="67" xmlns="http://www.w3.org/2000/svg"><g fill="#fff" transform="translate(6 6)"><path d="m49.3922152 43.1961076c0 1.548547 1.2553454 2.8038924 2.8038924 2.8038924s2.8038924-1.2553454 2.8038924-2.8038924v-40.39221518c0-1.54854702-1.2553454-2.80389242-2.8038924-2.80389242h-40.3922152c-1.548547 0-2.8038924 1.2553454-2.8038924 2.80389242s1.2553454 2.80389242 2.8038924 2.80389242h37.5883228z"/><path d="m38.666256 16.333744v14.999384c0 .920588.746284 1.666872 1.666872 1.666872s1.666872-.746284 1.666872-1.666872v-16.666256c0-.920588-.746284-1.666872-1.666872-1.666872h-16.666256c-.920588 0-1.666872.746284-1.666872 1.666872s.746284 1.666872 1.666872 1.666872z"/><path d="m40.3922152 14.6077848v37.5883228c0 1.548547 1.2553454 2.8038924 2.8038924 2.8038924s2.8038924-1.2553454 2.8038924-2.8038924v-40.3922152c0-1.548547-1.2553454-2.8038924-2.8038924-2.8038924h-40.39221518c-1.54854702 0-2.80389242 1.2553454-2.80389242 2.8038924s1.2553454 2.8038924 2.80389242 2.8038924z" transform="matrix(-1 0 0 -1 46 64)"/></g></svg>