<?xml version="1.0" encoding="UTF-8"?>
<svg width="20px" height="21px" viewBox="0 0 20 21" version="1.1" xmlns="http://www.w3.org/2000/svg" xmlns:xlink="http://www.w3.org/1999/xlink">
    <!-- Generator: Sketch 49.3 (51167) - http://www.bohemiancoding.com/sketch -->
    <title>search</title>
    <desc>Created with Sketch.</desc>
    <defs></defs>
    <g id="search" stroke="none" stroke-width="1" fill="none" fill-rule="evenodd">
        <path d="M17.6484969,16.5873684 L14.140193,13.0717556 C14.8057609,12.0282142 15.1583274,10.8157911 15.1561394,9.57806968 C15.1561394,5.94510211 12.2110372,3 8.57806968,3 C4.94510211,3 2,5.94510211 2,9.57806968 C2,13.2110372 4.94510211,16.1561394 8.57806968,16.1561394 C9.81579112,16.1583274 11.0282142,15.8057609 12.0717556,15.140193 L15.5873684,18.6484969 C16.1673499,19.1451803 17.0319039,19.1117863 17.5718451,18.5718451 C18.1117863,18.0319039 18.1451803,17.1673499 17.6484969,16.5873684 Z M8.57806968,13.2325528 C6.55975436,13.2325528 4.92358652,11.596385 4.92358652,9.57806968 C4.92358652,7.55975436 6.55975436,5.92358652 8.57806968,5.92358652 C10.596385,5.92358652 12.2325528,7.55975436 12.2325528,9.57806968 C12.2325528,11.596385 10.596385,13.2325528 8.57806968,13.2325528 Z" fill="#C9C9C9" fill-rule="nonzero"></path>
    </g>
</svg>