<?xml version="1.0" encoding="UTF-8"?>
<svg width="80px" height="80px" viewBox="0 0 80 80" version="1.1" xmlns="http://www.w3.org/2000/svg" xmlns:xlink="http://www.w3.org/1999/xlink">
    <!-- Generator: Sketch 49.2 (51160) - http://www.bohemiancoding.com/sketch -->
    <title>feature-extensions</title>
    <desc>Created with Sketch.</desc>
    <defs></defs>
    <g id="feature-extensions" stroke="none" stroke-width="1" fill="none" fill-rule="evenodd">
        <rect id="Rectangle-2" fill="#BFCECA" opacity="0.276268116" x="6" y="10" width="67" height="62" rx="6"></rect>
        <path d="M6,16 C6,12.6862915 8.6862915,10 12,10 L67,10 C70.3137085,10 73,12.6862915 73,16 L73,23.5 L6,23.5 L6,16 Z" id="Rectangle-2" fill="#9FB9B2" opacity="0.276268116"></path>
        <path d="M21.0566406,15.1298828 L21.0566406,16.9140625 L22.1171875,16.9140625 C22.7324219,16.9140625 23.0898438,16.5859375 23.0898438,16.0205078 C23.0898438,15.4609375 22.7177734,15.1298828 22.1025391,15.1298828 L21.0566406,15.1298828 Z M21.0566406,17.2685547 L21.0566406,19 L20.6582031,19 L20.6582031,14.7724609 L22.1494141,14.7724609 C22.9755859,14.7724609 23.5029297,15.2558594 23.5029297,16.0087891 C23.5029297,16.6064453 23.1630859,17.0576172 22.5976562,17.2041016 L23.6230469,19 L23.1542969,19 L22.1816406,17.2685547 L21.0566406,17.2685547 Z M26.7050781,18.6367188 L26.7050781,19 L24.1533203,19 L24.1533203,14.7724609 L26.7050781,14.7724609 L26.7050781,15.1357422 L24.5517578,15.1357422 L24.5517578,16.65625 L26.5966797,16.65625 L26.5966797,17.0136719 L24.5517578,17.0136719 L24.5517578,18.6367188 L26.7050781,18.6367188 Z M29.1015625,19.0673828 C27.9501953,19.0673828 27.2177734,18.2148438 27.2177734,16.8759766 C27.2177734,15.5517578 27.953125,14.7050781 29.1015625,14.7050781 C29.9951172,14.7050781 30.7011719,15.2880859 30.8154297,16.1142578 L30.4140625,16.1142578 C30.296875,15.5048828 29.7578125,15.0771484 29.1015625,15.0771484 C28.2050781,15.0771484 27.6279297,15.7773438 27.6279297,16.8759766 C27.6279297,17.9892578 28.2050781,18.6953125 29.1044922,18.6953125 C29.7783203,18.6953125 30.2880859,18.3349609 30.4140625,17.7490234 L30.8154297,17.7490234 C30.6660156,18.5722656 30.0185547,19.0673828 29.1015625,19.0673828 Z M33.9560547,18.6367188 L33.9560547,19 L31.4042969,19 L31.4042969,14.7724609 L33.9560547,14.7724609 L33.9560547,15.1357422 L31.8027344,15.1357422 L31.8027344,16.65625 L33.8476562,16.65625 L33.8476562,17.0136719 L31.8027344,17.0136719 L31.8027344,18.6367188 L33.9560547,18.6367188 Z M35.0341797,19 L34.6386719,19 L34.6386719,14.7724609 L35.0341797,14.7724609 L37.5126953,18.3027344 L37.5332031,18.3027344 L37.5332031,14.7724609 L37.9287109,14.7724609 L37.9287109,19 L37.5419922,19 L35.0546875,15.4667969 L35.0341797,15.4667969 L35.0341797,19 Z M40.2314453,19 L39.8300781,19 L39.8300781,15.1357422 L38.4355469,15.1357422 L38.4355469,14.7724609 L41.6289062,14.7724609 L41.6289062,15.1357422 L40.2314453,15.1357422 L40.2314453,19 Z" id="RECENT" fill="#000000"></path>
        <rect id="Rectangle" fill="#928A8A" x="9" y="13" width="8" height="8" rx="2"></rect>
        <path d="M13,31 L60.5105251,31" id="Path-2" stroke="#979797" stroke-width="2" stroke-linecap="round"></path>
        <path d="M13,41 L49,41" id="Path-2" stroke="#979797" stroke-width="2" stroke-linecap="round"></path>
        <path d="M13,51 L66.0094331,51" id="Path-2" stroke="#979797" stroke-width="2" stroke-linecap="round"></path>
    </g>
</svg>